<svg width="64" height="64" viewBox="0 0 64 64" fill="none" xmlns="http://www.w3.org/2000/svg">
<g clip-path="url(#clip0_21_2)">
<path d="M44.3307 37.12L51.5787 44.3627L31.9707 63.9707L12.3627 44.3653L19.608 37.12L31.9707 49.5467L44.3307 37.12ZM56.696 24.7573L64 32L56.76 39.2427L49.5147 32L56.696 24.7573ZM31.9707 24.7573L39.2133 31.936L31.968 39.1813L24.7253 32L31.9707 24.7573ZM7.24267 24.7573L14.4267 32L7.248 39.1787L0 32L7.24267 24.7573ZM31.9733 0.0319977L51.5733 19.5733L44.328 26.8133L31.9733 14.4533L19.6107 26.88L12.3653 19.6373L31.9733 0.0319977Z" fill="#F4BB2F"/>
</g>
<defs>
<clipPath id="clip0_21_2">
<rect width="64" height="64" fill="white"/>
</clipPath>
</defs>
</svg>
