<svg width="64" height="64" viewBox="0 0 64 64" fill="none" xmlns="http://www.w3.org/2000/svg">
<g clip-path="url(#clip0_21_4)">
<path d="M62.9067 9.26664C62.2275 7.39905 61.1474 5.70299 59.7422 4.2978C58.337 2.89262 56.6409 1.81245 54.7733 1.13331C51.28 0.0133057 48.1067 0.0133057 41.6533 0.0133057H22.2933C15.8933 0.0133057 12.6667 0.0133057 9.22667 1.07997C7.35637 1.76194 5.6586 2.8462 4.25323 4.25617C2.84787 5.66614 1.76918 7.36746 1.09333 9.23997C0 12.7066 0 15.9066 0 22.3066V41.6933C0 48.12 0 51.2933 1.06667 54.76C1.74581 56.6276 2.82598 58.3236 4.23116 59.7288C5.63635 61.134 7.33242 62.2142 9.2 62.8933C12.6667 63.9866 15.8667 63.9866 22.2667 63.9866H41.68C48.1067 63.9866 51.3067 63.9866 54.7467 62.92C56.6219 62.2413 58.3249 61.1585 59.7351 59.7484C61.1452 58.3382 62.228 56.6352 62.9067 54.76C64 51.2933 64 48.0933 64 41.6933V22.36C64 15.9333 64 12.7333 62.9067 9.26664ZM46.4533 21.6133L43.9733 24.0933C43.7316 24.3181 43.4152 24.4453 43.0851 24.4502C42.7551 24.4551 42.435 24.3375 42.1867 24.12C39.7849 22.0916 36.7437 20.9771 33.6 20.9733C31.0133 20.9733 28.4267 21.8266 28.4267 24.2C28.4267 26.6 31.2 27.4 34.4 28.6C40 30.4666 44.64 32.8133 44.64 38.3066C44.64 44.28 40 48.3866 32.4267 48.84L31.7333 52.04C31.672 52.334 31.5113 52.598 31.2781 52.7874C31.045 52.9769 30.7537 53.0802 30.4533 53.08H25.68L25.44 53.0533C25.0983 52.9767 24.8005 52.7687 24.6109 52.4743C24.4213 52.1799 24.3551 51.8228 24.4267 51.48L25.1733 48.0933C22.2992 47.3728 19.6561 45.9319 17.4933 43.9066V43.88C17.374 43.7611 17.2793 43.6198 17.2147 43.4642C17.1501 43.3086 17.1169 43.1418 17.1169 42.9733C17.1169 42.8048 17.1501 42.638 17.2147 42.4824C17.2793 42.3269 17.374 42.1856 17.4933 42.0666L20.16 39.48C20.4021 39.2531 20.7215 39.1269 21.0533 39.1269C21.3851 39.1269 21.7045 39.2531 21.9467 39.48C24.3733 41.7733 27.6267 43.0533 30.9867 43C34.4533 43 36.7733 41.5333 36.7733 39.2133C36.7733 36.8933 34.4267 36.28 30 34.6266C25.3067 32.9466 20.8533 30.5733 20.8533 25.0266C20.8533 18.5733 26.2133 15.4266 32.56 15.1333L33.2267 11.8533C33.2887 11.5618 33.4505 11.3011 33.6841 11.1161C33.9178 10.9311 34.2087 10.8334 34.5067 10.84H39.2533L39.52 10.8666C40.2133 11.0266 40.6667 11.6933 40.5067 12.3866L39.7867 16.04C42.1867 16.84 44.4533 18.0933 46.4 19.7466L46.4533 19.8C46.96 20.3333 46.96 21.1333 46.4533 21.6133Z" fill="#00D632"/>
</g>
<defs>
<clipPath id="clip0_21_4">
<rect width="64" height="64" fill="white"/>
</clipPath>
</defs>
</svg>
