<svg width="55" height="64" viewBox="0 0 55 64" fill="none" xmlns="http://www.w3.org/2000/svg">
<g clip-path="url(#clip0_21_6)">
<path d="M46.0264 4.98166C43.0735 1.61594 37.7357 0.172974 30.907 0.172974H11.0881C10.4125 0.172999 9.75904 0.414042 9.24523 0.852766C8.73142 1.29149 8.39096 1.89912 8.28507 2.5664L0.0328892 54.9038C-0.131137 55.9358 0.668015 56.8704 1.71405 56.8704H13.9495L17.0223 37.3799L16.927 37.9902C17.1459 36.6125 18.3242 35.5963 19.7195 35.5963H25.5337C36.9558 35.5963 45.8995 30.957 48.512 17.5363C48.5896 17.1393 48.6568 16.753 48.7149 16.3756C48.3851 16.2009 48.3851 16.2009 48.7149 16.3756C49.4928 11.4151 48.7096 8.03862 46.0264 4.98166Z" fill="#27346A"/>
<path d="M21.7041 14.5887C22.0386 14.4294 22.4044 14.3468 22.7749 14.3471H38.3125C40.1524 14.3471 41.8685 14.4668 43.4368 14.7192C43.8756 14.7892 44.3121 14.8727 44.7458 14.9697C45.3604 15.1053 45.968 15.2713 46.5662 15.4671C47.3372 15.7245 48.0551 16.0244 48.7151 16.3756C49.4928 11.4132 48.7096 8.03862 46.0264 4.98166C43.0718 1.61594 37.7357 0.172974 30.907 0.172974H11.0865C9.69096 0.172974 8.50378 1.18892 8.28508 2.5664L0.0328903 54.9019C-0.131136 55.9356 0.668016 56.8689 1.71236 56.8689H13.9495L20.3247 16.4408C20.3874 16.0435 20.5457 15.6673 20.786 15.3446C21.0263 15.022 21.3413 14.7626 21.7041 14.5887Z" fill="#27346A"/>
<path d="M48.5122 17.5362C45.8997 30.955 36.9562 35.5963 25.5339 35.5963H19.7179C18.3226 35.5963 17.1442 36.6124 16.9274 37.9901L13.1045 62.2243C12.9617 63.1275 13.6602 63.9459 14.574 63.9459H24.8882C25.479 63.9458 26.0504 63.7348 26.4996 63.351C26.9487 62.9672 27.2463 62.4357 27.3386 61.8521L27.439 61.3266L29.383 49.0064L29.5082 48.3255C29.6006 47.7419 29.898 47.2105 30.3472 46.8267C30.7963 46.4429 31.3677 46.2319 31.9585 46.2317H33.5021C43.4935 46.2317 51.317 42.1726 53.6032 30.433C54.5575 25.5271 54.0637 21.4311 51.5393 18.554C50.7736 17.6826 49.8227 16.9629 48.715 16.3755C48.655 16.7548 48.59 17.1392 48.5122 17.5362Z" fill="#2790C3"/>
<path d="M45.9807 15.2854C45.5733 15.1665 45.1621 15.0611 44.7477 14.9696C44.3138 14.8742 43.8773 14.7913 43.4387 14.7208C41.8688 14.4668 40.1539 14.3468 38.3123 14.3468H22.7767C22.4059 14.346 22.0398 14.4292 21.7058 14.5903C21.3427 14.7637 21.0272 15.0229 20.7868 15.3457C20.5464 15.6684 20.3883 16.0449 20.3262 16.4425L17.0241 37.3798L16.9287 37.9901C17.1459 36.6125 18.3242 35.5963 19.7197 35.5963H25.5357C36.9577 35.5963 45.9012 30.9569 48.5138 17.5362C48.5915 17.1393 48.6568 16.7547 48.7168 16.3755C48.0552 16.0263 47.3391 15.7245 46.5679 15.4687C46.3733 15.4042 46.1776 15.3431 45.9809 15.2854" fill="#1F264F"/>
</g>
<defs>
<clipPath id="clip0_21_6">
<rect width="54.26" height="64" fill="white"/>
</clipPath>
</defs>
</svg>
