<svg width="15" height="17" viewBox="0 0 15 17" fill="none" xmlns="http://www.w3.org/2000/svg">
<path d="M8.49999 1.5V2.1C10.7812 2.56344 12.5 4.58125 12.5 7V7.5875C12.5 9.05937 13.0406 10.475 14.0156 11.575L14.2469 11.8344C14.5094 12.1313 14.575 12.55 14.4125 12.9094C14.25 13.2688 13.8937 13.5 13.5 13.5H1.49999C1.10624 13.5 0.749084 13.2688 0.587771 12.9094C0.426459 12.55 0.49099 12.1313 0.752615 11.8344L0.984365 11.575C1.96062 10.475 2.49999 9.05937 2.49999 7.5875V7C2.49999 4.58125 4.19061 2.56344 6.49999 2.1V1.5C6.49999 0.947812 6.94687 0.5 7.49999 0.5C8.05311 0.5 8.49999 0.947812 8.49999 1.5ZM7.49999 16.5C6.96874 16.5 6.45936 16.2906 6.08436 15.9156C5.70936 15.5406 5.49999 15.0031 5.49999 14.5H9.49999C9.49999 15.0031 9.29062 15.5406 8.91562 15.9156C8.54062 16.2906 8.00312 16.5 7.49999 16.5Z" fill="white"/>
</svg>
