<svg width="214" height="213" viewBox="0 0 214 213" fill="none" xmlns="http://www.w3.org/2000/svg">
<path d="M89.3338 1.13365C65.7338 5.80031 47.2004 15.8003 30.2671 33.1336C7.33377 56.467 -3.7329 92.867 2.53377 125.267C7.0671 148.334 14.8004 163 32.0004 180.467C49.7338 198.467 67.7338 207.934 91.0671 211.534C115.067 215.267 141.067 210.334 161.6 198.2C172.134 191.934 188.934 175.667 196.267 164.6C224.534 121.934 218.134 65.667 180.934 30.067C168.134 17.8003 156 10.467 139.6 5.00031C129.334 1.53365 124.534 0.733648 111.6 0.333648C103.067 0.0669811 93.0671 0.333648 89.3338 1.13365ZM117.067 47.0003C120.534 48.2003 125.467 51.267 128 53.5337L132.534 57.8003L132.4 79.8003C132.267 110.6 132 108.6 136.534 109.667C143.2 111.134 150.667 117.534 154.534 125.134C160.667 137.534 158.534 149.8 148.534 159.934C142 166.467 135.867 169 126.667 169C120.534 169 110.8 165 106 160.467C103.2 157.8 100.8 157.267 90.6671 156.6C76.9338 155.8 68.4004 153.134 61.8671 147.8L57.3338 143.934L57.2004 101.534C57.0671 68.067 57.3338 58.3337 58.8004 56.2003C61.2004 52.2003 68.2671 48.067 76.8004 45.667C86.1338 43.1337 108.134 43.8003 117.067 47.0003Z" fill="black"/>
<path d="M74.2675 50.2C48.5341 59.1333 62.1341 77 94.6675 77C127.867 77 141.201 57.8 113.734 49.6667C104.001 46.8667 83.3341 47.1333 74.2675 50.2ZM103.067 55.5333C103.734 57.4 100.267 57.4 98.4008 55.5333C96.6675 53.8 92.6675 54.8667 92.6675 56.8667C92.6675 57.5333 95.2008 59.9333 98.4008 61.9333C101.467 64.0667 104.001 66.6 104.001 67.6667C104.001 68.7333 101.867 70.6 99.3341 71.8C94.9341 73.9333 94.5341 73.9333 91.0675 71.4C87.2008 68.7333 86.2675 66.3333 88.9341 66.3333C89.7341 66.3333 91.4675 67.2667 92.6675 68.3333C94.9341 70.3333 99.3341 69.8 99.3341 67.5333C99.3341 66.8667 96.9341 64.8667 94.1341 63.1333C86.8008 58.4667 86.2675 57 90.6675 53.5333C94.0008 50.8667 94.8008 50.7333 98.5341 52.3333C100.667 53.2667 102.801 54.7333 103.067 55.5333Z" fill="black"/>
<path d="M60.668 74.2006C60.668 77.6672 67.468 82.7339 75.7346 85.5339C83.7346 88.2006 104.535 88.3339 113.201 85.8006C121.068 83.4006 128.668 77.6672 128.668 74.2006V71.4006L124.268 74.2006C109.868 83.1339 79.468 83.1339 65.068 74.2006L60.668 71.4006V74.2006Z" fill="black"/>
<path d="M60.668 84.8673C60.668 92.0673 76.9346 98.6006 94.668 98.6006C112.401 98.6006 128.668 92.0673 128.668 84.8673C128.668 82.4673 128.535 82.4673 124.001 85.1339C109.468 93.6673 79.868 93.8006 65.468 85.2673C60.9346 82.6006 60.668 82.6006 60.668 84.8673Z" fill="black"/>
<path d="M60.668 95.7999C60.668 99.1332 67.6013 104.467 75.6013 107.133C85.2013 110.333 104.268 110.333 113.735 107.133C121.735 104.467 128.668 99.1332 128.668 95.7999C128.668 93.7999 127.601 93.9332 120.401 97.5332C112.401 101.533 111.468 101.667 94.668 101.667C77.868 101.667 76.9346 101.533 68.9346 97.5332C61.7346 93.9332 60.668 93.7999 60.668 95.7999Z" fill="black"/>
<path d="M60.668 106.067C60.668 111.267 70.268 117.267 82.668 119.534C96.4013 122.067 100.935 121.534 106.401 116.601L111.201 112.334L97.3346 112.734C82.268 113.267 71.3346 111.001 64.4013 106.067C60.8013 103.534 60.668 103.534 60.668 106.067Z" fill="black"/>
<path d="M125.733 105.534C122.533 107.934 122.666 108.867 126 108.067C127.466 107.667 128.666 106.467 128.666 105.534C128.666 103.267 128.666 103.267 125.733 105.534Z" fill="black"/>
<path d="M117.333 114.067C110.8 117.133 104.133 124.467 102 131C96.6664 147.267 109.6 164.867 127.066 165C135.733 165 141.333 162.733 146.933 156.867C152.266 151.267 154 146.6 154 138.467C154 119.8 133.866 106.333 117.333 114.067ZM131.466 126.6C132.933 128.067 134 129.933 134 130.6C134 132.067 131.733 131.933 130.666 130.333C130.266 129.533 128.933 129 127.866 129C124.666 129 125.733 133.667 130 137.667C134.533 141.933 135.2 146.867 131.733 150.6C128.933 153.667 127.466 153.667 124.533 150.067C121.466 146.6 121.333 145 124 145C125.066 145 126 145.533 126 146.333C126 147 126.8 147.667 127.866 147.667C131.866 147.667 131.466 144.733 126.8 139.667C121.2 133.533 120.933 131.933 124.8 127.133C128.133 122.867 128.4 122.867 131.466 126.6Z" fill="black"/>
<path d="M60.668 117.001C60.668 123.534 72.8013 129.801 88.4013 131.267C97.2013 132.067 99.3346 131.134 99.3346 126.334C99.3346 124.734 97.3346 124.201 90.268 123.934C79.6013 123.534 69.068 120.734 64.268 116.867L60.668 114.201V117.001Z" fill="black"/>
<path d="M60.668 127.933C60.668 134.333 72.9346 140.733 87.468 141.933C96.5346 142.733 96.668 142.733 96.668 139.4C96.668 136.333 96.0013 136.067 86.268 134.733C77.7346 133.667 70.9346 131.4 61.7346 126.6C61.068 126.333 60.668 126.867 60.668 127.933Z" fill="black"/>
<path d="M60.668 139.667C60.668 146.333 76.1346 153 91.6013 153H100.668L99.068 149.667C97.868 147 96.668 146.333 92.668 146.333C84.4013 146.333 73.7346 143.8 67.068 140.333C61.068 137.4 60.668 137.267 60.668 139.667Z" fill="black"/>
</svg>
