<svg width="438" height="512" viewBox="0 0 438 512" fill="none" xmlns="http://www.w3.org/2000/svg">
<g clip-path="url(#clip0_264_12171)">
<path d="M296.56 0H123.88C119.17 0 114.97 2.27 112.34 5.77L3.89001 123.1C1.43933 125.755 0.0789652 129.237 0.0799866 132.85L0 384.03C0 401.65 7.24999 417.72 18.9 429.39L18.97 429.46C30.64 441.1 46.7 448.33 64.3 448.33H84.36C84.66 465.57 91.84 481.23 103.24 492.62C114.9 504.28 130.99 511.52 148.66 511.52H373.7C391.37 511.52 407.46 504.28 419.11 492.62C430.76 480.98 438 464.9 438 447.22V135.87C438 118.19 430.77 102.09 419.12 90.45C407.48 78.8 391.38 71.57 373.7 71.57H360.86V64.3C360.86 46.62 353.63 30.52 341.98 18.88C330.34 7.23 314.24 0 296.56 0ZM266.03 250.96C274 250.96 280.46 244.49 280.46 236.52C280.46 228.56 274 222.09 266.03 222.09H94.83C86.86 222.09 80.39 228.56 80.39 236.52C80.39 244.49 86.86 250.96 94.83 250.96H266.03ZM266.03 327.82C274 327.82 280.46 321.36 280.46 313.39C280.46 305.43 274 298.96 266.03 298.96H129.61C121.64 298.96 115.18 305.43 115.18 313.39C115.18 321.36 121.64 327.82 129.61 327.82H266.03ZM115.69 44.44V93.47C114.73 105.77 110.48 115.37 103.04 121.73C95.24 128.39 83.46 132.14 67.81 132.42L34.42 132.38L115.69 44.44ZM28.86 161.22L68.03 161.16C90.82 160.81 108.8 154.66 121.75 143.59C135.23 132.05 142.85 115.73 144.41 95.56L144.55 93.56V28.86H296.56C306.29 28.86 315.17 32.86 321.59 39.27C328 45.69 332 54.57 332 64.3V384.03C332 393.77 327.99 402.64 321.58 409.05C315.16 415.47 306.29 419.47 296.56 419.47H64.3C54.55 419.47 45.68 415.49 39.29 409.09C32.84 402.65 28.86 393.79 28.86 384.03V161.22ZM113.24 448.33H296.56C314.24 448.33 330.33 441.09 341.97 429.45C353.62 417.8 360.86 401.72 360.86 384.03V100.43H373.7C383.44 100.43 392.31 104.43 398.73 110.84C405.14 117.26 409.14 126.13 409.14 135.87V447.22C409.14 456.95 405.13 465.81 398.72 472.23C392.29 478.66 383.42 482.66 373.7 482.66H148.66C138.94 482.66 130.07 478.66 123.64 472.23C117.47 466.06 113.52 457.62 113.24 448.33Z" fill="black"/>
</g>
<defs>
<clipPath id="clip0_264_12171">
<rect width="438" height="511.52" fill="white" transform="matrix(-1 0 0 1 438 0)"/>
</clipPath>
</defs>
</svg>
