<svg width="213" height="214" viewBox="0 0 213 214" fill="none" xmlns="http://www.w3.org/2000/svg">
<path d="M88.4668 2.13354C57.9335 7.20021 27.4001 29.0669 12.6001 56.5335C9.93346 61.3335 6.20013 70.6669 4.20013 77.3335C1.00013 87.8669 0.466797 91.4669 0.466797 107.334C0.466797 123.2 1.00013 126.8 4.20013 137.334C14.7335 172 39.2668 196.934 74.3335 208.8C86.2001 212.934 88.0668 213.2 106.333 213.2C124.733 213.2 126.333 213.067 138.333 208.934C176.733 195.734 202.733 166.4 210.867 126.934C217.8 93.8669 206.333 56.8002 181.667 32.2669C157.4 8.00021 121.8 -3.46646 88.4668 2.13354ZM111.667 44.6669C116.6 47.3335 117.533 57.8669 113.4 65.3335C111.667 68.4002 101.4 68.8002 99.5335 65.8669C91.5335 53.4669 100.067 38.4002 111.667 44.6669ZM91.1335 53.7335C91.9335 54.2669 93.0001 56.4002 93.4001 58.6669C93.8001 60.8002 94.4668 63.8669 95.0001 65.3335C95.8001 67.8669 95.2668 68.0002 87.8001 67.6002L79.6668 67.0669V62.8002C79.6668 58.5335 82.0668 55.2002 86.3335 53.6002C89.1335 52.5335 89.5335 52.5335 91.1335 53.7335ZM129.533 55.4669C132.467 57.7335 133 59.2002 132.733 62.9335L132.333 67.6002L124.6 67.8669C117.4 68.0002 116.867 67.8669 117.667 65.3335C118.2 63.8669 118.867 61.2002 119.267 59.3335C120.467 53.4669 120.867 52.6669 123.4 52.6669C124.867 52.6669 127.533 54.0002 129.533 55.4669ZM97.0001 80.6669V90.0002H72.3335H47.6668V80.6669V71.3335H72.3335H97.0001V80.6669ZM111.667 80.0002V88.6669H106.333H101V80.0002V71.3335H106.333H111.667V80.0002ZM165 80.6669V90.0002H140.333H115.667V80.6669V71.3335H140.333H165V80.6669ZM90.6001 94.9335C86.0668 95.3335 83.2668 96.1335 82.7335 97.4669C82.3335 98.4002 80.7335 99.3335 79.1335 99.3335C77.5335 99.3335 74.8668 100.534 73.2668 102C69.4001 105.6 69.2668 115.6 72.8668 121.467C75.4001 125.6 83.4001 132.667 85.8001 132.667C86.4668 132.8 89.0001 134.534 91.4001 136.534C95.0001 139.6 95.6668 140.934 95.0001 143.734C94.4668 145.6 92.6001 148.134 90.8668 149.334C89.1335 150.4 87.6668 152.134 87.6668 153.067C87.6668 154 86.4668 155.467 85.0001 156.4C83.5335 157.334 82.3335 159.467 82.3335 161.334V164.8L68.7335 164.4L55.0001 164L54.6001 128.934L54.3335 94.0002L75.9335 94.2669C87.9335 94.4002 94.4668 94.6669 90.6001 94.9335ZM109.4 94.9335C107.667 95.2002 105 95.2002 103.4 94.9335C101.667 94.6669 103 94.4002 106.333 94.4002C109.667 94.4002 111 94.6669 109.4 94.9335ZM158.067 128.934L157.667 164L144.067 164.4L130.333 164.8V161.334C130.333 159.467 129.133 157.334 127.667 156.4C126.2 155.467 125 154 125 153.067C125 152.267 123.533 150.4 121.8 149.067C119.933 147.734 118.067 145.067 117.667 143.2C116.867 140.134 117.533 139.2 123 135.867C138.067 126.534 142.333 120.8 142.333 110.134C142.333 104.8 141.8 103.067 139.4 101.467C137.8 100.267 135.133 99.3335 133.533 99.3335C131.933 99.3335 130.333 98.4002 129.933 97.4669C129.4 96.1335 126.6 95.3335 122.067 94.9335C118.2 94.6669 124.733 94.4002 136.733 94.2669L158.333 94.0002L158.067 128.934ZM127.4 111.867C127.133 122.134 126.467 125.2 124.2 128.267C114.467 141.334 98.2001 141.334 88.4668 128.267C86.2001 125.2 85.5335 122.134 85.2668 111.867L84.7335 99.3335H106.333H127.933L127.4 111.867ZM81.0001 110.267C81.0001 114.134 81.5335 119.6 82.2001 122.267C83.1335 126.134 83.0001 126.934 81.5335 126.4C78.0668 125.067 74.3335 117.2 74.3335 111.067C74.3335 104.534 75.0001 103.334 78.6001 103.334C80.6001 103.334 81.0001 104.4 81.0001 110.267ZM138.067 110C138.6 116.534 135.933 123.067 131.667 125.6C129.4 127.067 129.267 126.934 130.467 122.934C131.133 120.667 131.667 115.2 131.667 110.934C131.667 103.6 131.8 103.2 134.733 103.6C137.133 103.867 137.8 104.934 138.067 110ZM114.067 144.534C114.467 147.067 113.933 147.334 106.467 147.334C101.933 147.334 98.3335 146.8 98.3335 146.134C98.3335 142.267 100.067 141.334 106.733 141.467C112.733 141.6 113.667 142 114.067 144.534ZM120.733 153.6C121.133 154.934 117.667 155.334 106.467 155.334C92.8668 155.334 90.0668 154.667 92.6001 152.134C94.3335 150.534 120.067 151.867 120.733 153.6ZM126.333 165.334V171.334H106.333H86.3335V165.334V159.334H106.333H126.333V165.334Z" fill="black"/>
<path d="M103.4 108C102.6 109.867 101.4 111.334 100.866 111.334C100.333 111.334 98.1996 112 96.1996 112.667L92.5996 114.134L95.5329 117.067C97.2663 118.934 98.3329 121.867 98.3329 124.534C98.3329 128.534 98.5996 128.934 101.4 128C104.466 127.067 106.066 126.934 111.666 127.6C114.6 128 115 127.6 114.6 124.267C114.2 121.734 115.133 119.334 117.133 117.2L120.066 114.134L116.466 112.667C114.466 112 112.333 111.334 111.8 111.334C111.266 111.334 110.066 109.867 109.266 108C108.466 106.134 107.133 104.667 106.333 104.667C105.533 104.667 104.2 106.134 103.4 108ZM109.666 114.534C111.666 115.6 112.6 116.8 111.8 117.334C111 117.734 110.333 119.2 110.333 120.4C110.333 122 109.133 122.667 106.333 122.667C103.8 122.667 102.466 122.134 102.866 121.067C103.266 120.267 102.6 118.8 101.533 117.867C99.9329 116.534 100.066 116 102.6 114.667C104.333 113.734 105.8 112.934 105.8 112.8C105.933 112.667 107.666 113.467 109.666 114.534Z" fill="black"/>
</svg>
