<svg width="214" height="213" viewBox="0 0 214 213" fill="none" xmlns="http://www.w3.org/2000/svg">
<path d="M87.3326 1.53372C66.5326 5.93372 49.7326 14.8671 34.3993 29.4004C7.86597 54.7337 -4.13403 90.6004 2.53263 125.267C13.466 182.067 67.466 220.6 123.333 211.534C182.533 201.934 223.199 145.134 212.133 87.267C207.733 64.867 197.066 45.4004 180.133 29.4004C160.533 10.6004 138.399 1.26705 111.599 0.33372C101.333 -0.0662796 93.066 0.33372 87.3326 1.53372ZM148.666 48.3337V51.6671H107.333H65.9993V48.3337V45.0004H107.333H148.666V48.3337ZM166.266 71.0004C171.199 79.8004 175.333 87.667 175.333 88.467C175.333 89.267 174.133 91.5337 172.533 93.5337C169.333 97.5337 162.933 98.2004 159.333 95.0004C157.333 93.1337 156.933 93.1337 155.333 95.0004C154.399 96.067 151.599 97.0004 148.933 97.0004C146.399 97.0004 143.199 96.067 141.999 95.0004C139.999 93.1337 139.599 93.1337 137.999 95.0004C135.866 97.5337 128.133 97.5337 125.999 95.0004C124.399 93.1337 123.999 93.1337 121.866 95.1337C120.133 96.7337 118.133 97.1337 114.399 96.467C108.133 95.4004 106.533 95.4004 100.266 96.467C96.5326 97.1337 94.5326 96.7337 92.7993 95.1337C90.666 93.1337 90.266 93.1337 88.666 95.0004C87.7326 96.067 85.066 97.0004 82.666 97.0004C80.266 97.0004 77.5993 96.067 76.666 95.0004C75.066 93.1337 74.666 93.1337 72.666 95.0004C69.866 97.5337 61.466 97.5337 59.3326 95.0004C57.7326 93.1337 57.3326 93.1337 55.3326 95.0004C51.7326 98.2004 45.3326 97.5337 42.1326 93.5337C40.5326 91.5337 39.3326 89.4004 39.3326 88.6004C39.3326 87.267 54.666 59.0004 57.066 55.9337C57.9993 54.7337 69.1993 54.3337 107.866 54.6004L157.333 55.0004L166.266 71.0004ZM59.9993 98.3337C61.066 100.067 70.3993 100.067 72.266 98.2004C73.3326 97.1337 74.5326 97.1337 76.3993 98.2004C79.866 100.067 85.466 100.067 88.7993 98.2004C90.7993 97.267 91.9993 97.267 93.466 98.3337C94.5326 99.4004 97.1993 99.667 100.266 99.1337C103.066 98.6004 106.266 98.3337 107.333 98.3337C108.399 98.3337 111.599 98.6004 114.399 99.1337C117.466 99.667 120.133 99.4004 121.199 98.3337C122.666 97.267 123.866 97.267 125.866 98.2004C129.199 100.067 134.799 100.067 138.266 98.2004C140.133 97.1337 141.333 97.1337 142.399 98.2004C144.399 100.2 153.066 100.067 155.066 98.067C158.799 94.3337 159.466 99.267 159.066 130.067C158.533 170.334 161.333 167 127.599 167H102.666L102.266 147.267L101.866 127.667H89.3326H76.7993L76.3993 147.267L75.9993 167H68.9326C63.5993 166.867 61.3326 166.2 58.9326 163.934C56.1326 161 55.9993 159.934 55.5993 130.734C55.3326 114.2 55.466 99.8004 55.866 98.867C56.666 96.7337 58.7993 96.467 59.9993 98.3337Z" fill="black"/>
<path d="M120.932 129.267C119.999 130.201 119.332 134.467 119.332 139.001C119.332 143.534 119.999 147.801 120.932 148.734C121.865 149.667 126.265 150.334 131.599 150.334C141.999 150.334 143.332 149.134 143.332 139.001C143.332 128.867 141.999 127.667 131.599 127.667C126.265 127.667 121.865 128.334 120.932 129.267Z" fill="black"/>
</svg>
