<svg width="210" height="213" viewBox="0 0 210 213" fill="none" xmlns="http://www.w3.org/2000/svg">
<path d="M68.5759 5.42418C43.8716 14.8644 25.1303 31.1701 11.9263 53.9124C1.70375 71.0764 0 78.8002 0 106.692C0 135.441 1.70375 141.449 12.7781 160.329C45.1494 212.679 110.744 228.556 161.43 196.373C227.451 154.322 225.747 56.487 158.875 14.8644C134.17 -0.583207 94.5581 -4.4451 68.5759 5.42418ZM127.781 75.7965C135.022 79.6584 140.985 86.9531 141.837 91.6732C143.115 98.9678 140.985 99.826 117.133 98.5387C92.0025 96.8223 91.5766 96.8223 91.5766 108.408C91.5766 118.706 92.4284 119.565 98.3916 114.845C103.929 109.695 104.355 110.554 99.6694 120.423C95.8359 129.434 95.8359 134.583 99.2434 142.736L104.355 153.463L88.595 147.027C63.4647 136.299 61.335 132.867 62.6128 106.692C63.8906 83.9494 64.7425 82.6621 80.9281 73.2219C98.8175 62.9235 106.058 63.3526 127.781 75.7965ZM111.596 104.546C110.318 105.833 106.484 106.263 103.503 104.975C100.095 103.688 101.373 102.401 106.058 102.401C110.744 101.972 113.299 103.259 111.596 104.546ZM144.393 117.419C153.338 126.43 152.912 134.583 142.689 144.881C132.893 154.751 128.633 155.18 116.707 149.172C107.336 144.023 105.633 123.856 113.725 115.703C120.966 108.408 136.726 109.266 144.393 117.419Z" fill="black"/>
<path d="M68.9995 100.683C64.7402 104.974 65.592 119.134 69.8514 119.134C71.9811 119.134 74.9627 116.56 75.8145 113.556C77.5183 109.265 78.3702 109.265 78.3702 113.556C79.222 124.713 87.3149 118.705 86.8889 107.12C86.8889 100.683 85.6111 98.1084 84.3333 101.112C83.0555 104.974 80.4999 105.403 77.0924 102.399C74.1108 99.8248 70.2774 98.9666 68.9995 100.683Z" fill="black"/>
<path d="M122.669 121.711C121.391 125.573 122.669 130.293 126.077 132.439C131.188 135.443 131.188 136.301 126.077 136.301C120.965 136.301 120.965 137.588 124.799 141.45C128.632 145.312 131.188 145.312 135.447 141.021C139.707 136.73 138.855 134.584 132.892 129.864C125.225 124.286 125.225 124.286 132.892 122.57C140.133 121.282 140.133 120.853 132.892 117.85C127.78 116.133 124.373 117.42 122.669 121.711Z" fill="black"/>
</svg>
