<svg width="16" height="17" viewBox="0 0 16 17" fill="none" xmlns="http://www.w3.org/2000/svg">
<path d="M13.4945 3.95709C12.484 3.49341 11.4003 3.1518 10.2673 2.95614C10.2467 2.95237 10.2261 2.9618 10.2154 2.98068C10.0761 3.22855 9.9217 3.55192 9.8136 3.80609C8.59497 3.62365 7.38259 3.62365 6.18895 3.80609C6.08083 3.54627 5.92085 3.22855 5.78086 2.98068C5.77023 2.96243 5.74962 2.953 5.72898 2.95614C4.59659 3.15117 3.51295 3.49279 2.5018 3.95709C2.49304 3.96086 2.48554 3.96716 2.48056 3.97533C0.425121 7.04612 -0.13795 10.0414 0.138274 12.9996C0.139524 13.0141 0.147648 13.0279 0.158897 13.0367C1.51502 14.0326 2.82865 14.6372 4.11789 15.038C4.13852 15.0443 4.16039 15.0367 4.17352 15.0197C4.47849 14.6032 4.75034 14.1641 4.98343 13.7023C4.99718 13.6753 4.98405 13.6432 4.95594 13.6325C4.52473 13.4689 4.11414 13.2695 3.71918 13.043C3.68794 13.0248 3.68544 12.9801 3.71417 12.9587C3.79729 12.8964 3.88043 12.8316 3.95979 12.7662C3.97415 12.7542 3.99416 12.7517 4.01104 12.7592C6.60578 13.9439 9.41489 13.9439 11.979 12.7592C11.9959 12.7511 12.0159 12.7536 12.0309 12.7655C12.1103 12.831 12.1934 12.8964 12.2771 12.9587C12.3059 12.9801 12.304 13.0248 12.2727 13.043C11.8778 13.2739 11.4672 13.4689 11.0354 13.6319C11.0072 13.6426 10.9947 13.6753 11.0085 13.7023C11.2466 14.1635 11.5184 14.6026 11.8178 15.0191C11.8303 15.0367 11.8528 15.0443 11.8734 15.038C13.1689 14.6372 14.4825 14.0326 15.8386 13.0367C15.8505 13.0279 15.858 13.0147 15.8593 13.0002C16.1899 9.58025 15.3056 6.60951 13.5151 3.97596C13.5107 3.96716 13.5033 3.96086 13.4945 3.95709ZM5.37091 11.1984C4.58972 11.1984 3.94603 10.4812 3.94603 9.60039C3.94603 8.7196 4.57723 8.0024 5.37091 8.0024C6.17082 8.0024 6.80827 8.7259 6.79576 9.60039C6.79576 10.4812 6.16457 11.1984 5.37091 11.1984ZM10.6391 11.1984C9.85797 11.1984 9.21429 10.4812 9.21429 9.60039C9.21429 8.7196 9.84547 8.0024 10.6391 8.0024C11.4391 8.0024 12.0765 8.7259 12.064 9.60039C12.064 10.4812 11.4391 11.1984 10.6391 11.1984Z" fill="white"/>
</svg>
