<svg width="14" height="11" viewBox="0 0 14 11" fill="none" xmlns="http://www.w3.org/2000/svg">
<path d="M12.7695 0.5H1.23047C0.550621 0.5 0 1.06283 0 1.75V9.25C0 9.94125 0.554668 10.5 1.23047 10.5H12.7695C13.4437 10.5 14 9.94361 14 9.25V1.75C14 1.06406 13.4516 0.5 12.7695 0.5ZM12.5972 1.33333C12.3458 1.58736 8.01946 5.95925 7.87008 6.11019C7.63766 6.34631 7.32867 6.47631 7 6.47631C6.67133 6.47631 6.36234 6.34628 6.12916 6.10942C6.0287 6.00789 1.75008 1.68428 1.40279 1.33333H12.5972ZM0.820312 9.08039V1.92014L4.3651 5.50222L0.820312 9.08039ZM1.40331 9.66667L4.9467 6.08992L5.54988 6.69944C5.93723 7.09294 6.45222 7.30964 7 7.30964C7.54778 7.30964 8.06277 7.09294 8.44936 6.70022L9.0533 6.08992L12.5967 9.66667H1.40331ZM13.1797 9.08039L9.6349 5.50222L13.1797 1.92014V9.08039Z" fill="#ffc700"/>
</svg>
