<svg width="16" height="17" viewBox="0 0 16 17" fill="none" xmlns="http://www.w3.org/2000/svg">
<path fill-rule="evenodd" clip-rule="evenodd" d="M1.3581 8.02888C5.49242 6.22762 8.24928 5.04013 9.62868 4.46639C13.5672 2.82824 14.3855 2.54368 14.919 2.53428C15.0363 2.53221 15.2986 2.56129 15.4685 2.69916C15.612 2.81558 15.6515 2.97285 15.6703 3.08323C15.6892 3.19361 15.7128 3.44505 15.6941 3.64152C15.4806 5.88402 14.5571 11.326 14.0873 13.8376C13.8885 14.9004 13.4971 15.2567 13.1181 15.2916C12.2945 15.3674 11.6692 14.7473 10.8715 14.2244C9.62329 13.4062 8.91814 12.8969 7.70655 12.0985C6.30634 11.1758 7.21404 10.6686 8.01201 9.83981C8.22084 9.62291 11.8495 6.32235 11.9197 6.02294C11.9285 5.98549 11.9367 5.84591 11.8538 5.77221C11.7708 5.6985 11.6484 5.72371 11.5601 5.74375C11.4349 5.77216 9.44093 7.09013 5.57811 9.69764C5.01211 10.0863 4.49945 10.2757 4.04013 10.2657C3.53376 10.2548 2.55971 9.97943 1.83561 9.74405C0.947461 9.45535 0.241581 9.30271 0.303048 8.81241C0.335063 8.55703 0.686745 8.29585 1.3581 8.02888Z" fill="white"/>
</svg>
