<svg width="16" height="17" viewBox="0 0 16 17" fill="none" xmlns="http://www.w3.org/2000/svg">
<path d="M14.0379 5.28727C14.0441 5.42807 14.0441 5.56247 14.0441 5.70327C14.0503 9.97208 10.914 14.9001 5.17846 14.9001C3.48682 14.9001 1.82606 14.3945 0.399902 13.4473C0.646856 13.4793 0.89381 13.4921 1.14076 13.4921C2.54223 13.4921 3.90664 13.0057 5.01176 12.1033C3.67821 12.0777 2.50518 11.1753 2.09771 9.85688C2.56692 9.95288 3.04848 9.93368 3.50535 9.79928C2.05449 9.50488 1.01111 8.18008 1.00494 6.63767C1.00494 6.62487 1.00494 6.61207 1.00494 6.59927C1.43711 6.84887 1.92484 6.98967 2.41875 7.00247C1.05433 6.05527 0.628335 4.16726 1.45563 2.68886C3.04231 4.71127 5.37602 5.93367 7.8826 6.06807C7.62947 4.94807 7.97521 3.77046 8.78398 2.97686C10.0373 1.75446 12.0129 1.81846 13.1983 3.11766C13.8959 2.97686 14.5689 2.70806 15.1801 2.33046C14.9455 3.07926 14.4577 3.71286 13.8095 4.11606C14.4269 4.03926 15.0319 3.86646 15.5999 3.61046C15.1801 4.26326 14.6491 4.82647 14.0379 5.28727Z" fill="white"/>
</svg>
